<svg id="markers" xmlns="http://www.w3.org/2000/svg" viewBox="0 0 345.35 1195.99"><defs><style>
.cls-1{fill:#60449b;}
 <!-- .cls-1{
    #markers2 cursor: pointer;
    fill:#000000;} -->
    .cls-1, .cls-2, .cls-3, .cls-4, .cls-5, .cls-6, .cls-7{
 cursor: pointer;}

 .cls-1:hover{
     fill:#8e79c9;
 }
 .cls-2:hover{
     fill:#5ddbc3;
 }
 .cls-3:hover{
     fill:#e8ae74;
 }
 .cls-4:hover{
     fill:#97e1f2;
 }
 .cls-5:hover{
     fill:#e3e874;
 }
 .cls-6:hover{
     fill:#f4878d;
 }
 .cls-7:hover{
     fill:#6d6d6d;
 }
.cls-2{fill:#009e84;}
.cls-3{fill:#ed8c22;}
.cls-4{fill:#37c5ec;}
.cls-5{fill:#c5d248;}
.cls-6{fill:#d0282b;}
.cls-7{fill:#464547;}
.cls-12,.cls-14,.cls-8{font-size:45px;}
.cls-12,.cls-14,.cls-29,.cls-8{fill:#fff;}
.cls-12,.cls-14,.cls-15,.cls-16,.cls-29,.cls-8{font-family:SoleilSb, Soleil;}
.cls-8{letter-spacing:0.03em;}.cls-9{letter-spacing:0.01em;}
.cls-10,.cls-15,.cls-16,.cls-29{letter-spacing:0em;}
.cls-11{letter-spacing:0.01em;}
.cls-12{letter-spacing:0em;}
.cls-13{letter-spacing:0em;}
.cls-14{letter-spacing:-0.02em;}
.cls-15{font-size:80px;fill:#ee8c22;}
.cls-16{font-size:70px;fill:#1ea1ce;}
.cls-17,.cls-18,.cls-19,.cls-20,.cls-21,.cls-22,.cls-23,.cls-24,.cls-25,.cls-26,.cls-27,.cls-28{fill:none;stroke-linecap:round;stroke-miterlimit:10;stroke-width:4px;}
.cls-17,.cls-18,.cls-19{stroke:#00a59c;}
.cls-18,.cls-21,.cls-24,.cls-27{stroke-dasharray:0.51 0.51;}
.cls-19,.cls-22,.cls-25,.cls-28{stroke-dasharray:10.24 10.24 0.51 0.51;}
.cls-20,.cls-21,.cls-22{stroke:#0075a4;}
.cls-23,.cls-24,.cls-25{stroke:#4267b0;}
.cls-26,.cls-27,.cls-28{stroke:#273993;}
.cls-29{font-size:35px;}
.cls-30{letter-spacing:0.05em;}
</style>
</defs>
<title>Asset 1</title>
<g id="Layer_2" data-name="Layer 2">
<g id="markers2"><path  id="purplec" class="cls-1" d="M63.34,242.2c12.55,0,24.58-11,24-24s-10.54-24-24-24c-12.55,0-24.58,11-24,24s10.55,24,24,24Z"/>
<path class="cls-2" d="M65,306.71c12.55,0,24.58-11,24-24s-10.55-24-24-24c-12.56,0-24.58,11-24,24s10.54,24,24,24Z"/>
<path class="cls-3" d="M65,369.51c12.55,0,24.58-11,24-24s-10.55-24-24-24c-12.56,0-24.58,11-24,24s10.54,24,24,24Z"/>
<path class="cls-4" d="M65,432.65c12.55,0,24.58-11,24-24s-10.55-24-24-24c-12.56,0-24.58,11-24,24s10.54,24,24,24Z"/>
<path class="cls-5" d="M65.34,172.7c12.55,0,24.58-11,24-24s-10.54-24-24-24c-12.55,0-24.58,11-24,24s10.55,24,24,24Z"/>
<path class="cls-6" d="M65,114c12.55,0,24.58-11,24-24S78.41,66,65,66C52.4,66,40.38,77,41,90s10.54,24,24,24Z"/>
<path class="cls-7" d="M61.64,48c12.55,0,24.58-11,24-24S75.09,0,61.64,0c-12.56,0-24.58,11-24,24s10.54,24,24,24Z"/>
<text class="cls-8" transform="translate(102.12 1067.68) scale(0.58)">L<tspan class="cls-9" x="24.25" y="0">A</tspan>
<tspan class="cls-10" x="54.9" y="0">NT</tspan>
<tspan class="cls-11" x="110.97" y="0">HA</tspan>
<tspan class="cls-10" x="175.45" y="0">NIDE</tspan>
</text><text class="cls-12" transform="translate(119.58 32.03) scale(0.58)">P<tspan class="cls-13" x="26.19" y="0">ERIOD I</tspan>
</text><text class="cls-12" transform="translate(120.61 95.11) scale(0.58)">P<tspan class="cls-13" x="26.19" y="0">ERIOD II</tspan></text>
<text class="cls-12" transform="translate(120.41 156.12) scale(0.58)">P<tspan class="cls-13" x="26.19" y="0">ERIOD III</tspan></text><text class="cls-12" transform="translate(119.53 229.77) scale(0.58)">P<tspan class="cls-13" x="26.19" y="0">ERIOD IV</tspan></text><text class="cls-12" transform="translate(123.41 291.14) scale(0.58)">P<tspan class="cls-13" x="26.19" y="0">ERIOD V</tspan></text><text class="cls-12" transform="translate(121.26 360.37) scale(0.58)">P<tspan class="cls-13" x="26.19" y="0">ERIOD VI</tspan></text><text class="cls-12" transform="translate(119.11 415.75) scale(0.58)">P<tspan class="cls-13" x="26.19" y="0">ERIOD VII</tspan></text><text class="cls-14" transform="translate(110.72 1127.64) scale(0.58)">A<tspan class="cls-13" x="29.52" y="0">CNTINIDE</tspan></text><text class="cls-15" transform="translate(35.95 1068.72) scale(0.58)">L</text><text class="cls-16" transform="translate(34.07 1133.06) scale(0.58)">A</text><g id="dashed"><line class="cls-17" x1="21.66" y1="647.72" x2="26.66" y2="647.72"/><line class="cls-18" x1="36.9" y1="647.72" x2="37.67" y2="647.72"/><line class="cls-19" x1="37.93" y1="647.72" x2="102.17" y2="647.72"/><line class="cls-17" x1="102.43" y1="647.72" x2="107.43" y2="647.72"/><line class="cls-20" x1="21.19" y1="675.26" x2="26.19" y2="675.26"/><line class="cls-21" x1="36.43" y1="675.26" x2="37.2" y2="675.26"/><line class="cls-22" x1="37.45" y1="675.26" x2="101.7" y2="675.26"/><line class="cls-20" x1="101.96" y1="675.26" x2="106.96" y2="675.26"/><line class="cls-23" x1="20.17" y1="702.85" x2="25.17" y2="702.85"/><line class="cls-24" x1="35.41" y1="702.85" x2="36.18" y2="702.85"/><line class="cls-25" x1="36.44" y1="702.85" x2="100.69" y2="702.85"/><line class="cls-23" x1="100.94" y1="702.85" x2="105.94" y2="702.85"/><line class="cls-26" x1="20.63" y1="730.91" x2="25.63" y2="730.91"/><line class="cls-27" x1="35.87" y1="730.91" x2="36.64" y2="730.91"/><line class="cls-28" x1="36.9" y1="730.91" x2="101.15" y2="730.91"/><line class="cls-26" x1="101.4" y1="730.91" x2="106.4" y2="730.91"/><text class="cls-29" transform="translate(138.1 653.47) scale(0.58)">Alkali Metal</text><text class="cls-29" transform="translate(138.19 680.16) scale(0.58)">Alkali Ea<tspan class="cls-30" x="139.96" y="0">r</tspan><tspan x="154.45" y="0">th Metal</tspan></text><text class="cls-29" transform="translate(138.92 706.18) scale(0.58)">Nobel Gas</text><text class="cls-29" transform="translate(138.56 736.82) scale(0.58)">Diatomic Nonmetal</text></g></g></g>
<defs>
	<script>
	document.querySelector('#markers').addEventListener("click", function(){
			
			console.log('clicked on te SVG!', this.id);
            <!-- this.querySelector(".cls-1").classList.toggle('.new'); -->
            })
       
			
            

			
		
		
	</script>
</defs>
</svg>